<svg xmlns="http://www.w3.org/2000/svg" width="22.56" height="22.56" viewBox="0 0 22.56 22.56">
  <g id="help-circle-outline" transform="translate(-79 -79)">
    <path id="Path_198" data-name="Path 198" d="M90.28,80a10.28,10.28,0,1,0,10.28,10.28A10.28,10.28,0,0,0,90.28,80Z" fill="none" stroke="#fff" stroke-miterlimit="10" stroke-width="2"/>
    <path id="Path_199" data-name="Path 199" d="M200,160.58a2.851,2.851,0,0,1,1.143-1.9,3.4,3.4,0,0,1,2.128-.685,3.767,3.767,0,0,1,1.55.26,2.686,2.686,0,0,1,1.721,2.4c0,1.519-.993,2.208-2.124,2.967a2.761,2.761,0,0,0-1.439,2.433" transform="translate(-112.991 -73.437)" fill="none" stroke="#fff" stroke-linecap="round" stroke-miterlimit="10" stroke-width="2"/>
    <circle id="Ellipse_51" data-name="Ellipse 51" cx="1.5" cy="1.5" r="1.5" transform="translate(88.28 94.28)" fill="#fff"/>
  </g>
</svg>
