<svg xmlns="http://www.w3.org/2000/svg" width="22.193" height="25.778" viewBox="0 0 22.193 25.778">
  <g id="notifications-outline" transform="translate(-78.81 -47)">
    <path id="Path_196" data-name="Path 196" d="M99.721,65.343c-1.468-1.8-2.5-2.711-2.5-7.664,0-4.535-2.316-6.151-4.222-6.936a1.018,1.018,0,0,1-.569-.6,2.549,2.549,0,0,0-5.033,0,1.008,1.008,0,0,1-.569.6c-1.909.786-4.222,2.4-4.222,6.936,0,4.953-1.039,5.867-2.507,7.664a1.153,1.153,0,0,0,.988,1.862H98.738A1.153,1.153,0,0,0,99.721,65.343Z" transform="translate(0)" fill="none" stroke="#fff" stroke-linecap="round" stroke-linejoin="round" stroke-width="2"/>
    <path id="Path_197" data-name="Path 197" d="M199.316,384v.915a3.658,3.658,0,1,1-7.316,0V384" transform="translate(-105.75 -316.795)" fill="none" stroke="#fff" stroke-linecap="round" stroke-linejoin="round" stroke-width="2"/>
  </g>
</svg>
